<?xml version="1.0" standalone="no"?>
<!DOCTYPE svg PUBLIC "-//W3C//DTD SVG 20010904//EN"
 "http://www.w3.org/TR/2001/REC-SVG-20010904/DTD/svg10.dtd">
<svg version="1.0" xmlns="http://www.w3.org/2000/svg"
 width="1024.000000pt" height="1024.000000pt" viewBox="0 0 1024.000000 1024.000000"
 preserveAspectRatio="xMidYMid meet">

<g transform="translate(0.000000,1024.000000) scale(0.100000,-0.100000)"
fill="#629677" stroke="#629677" stroke-width="100">

<path fill="#629677" d="M5005 7918 c-242 -28 -472 -141 -645 -317 -181 -183 -280 -394 -310
-661 -33 -287 45 -542 269 -882 202 -307 710 -905 783 -923 50 -13 81 4 168
93 151 153 476 550 626 762 242 345 335 596 320 875 -17 353 -170 646 -441
848 -158 118 -316 179 -528 207 -92 11 -125 11 -242 -2z m300 -63 c342 -60
639 -298 776 -624 92 -220 103 -502 28 -732 -72 -219 -277 -529 -641 -964
-194 -233 -309 -355 -333 -355 -61 0 -595 637 -798 951 -107 166 -188 347
-212 474 -70 361 30 708 276 956 238 240 578 351 904 294z"/>

<path fill="#629677" d="M5001 7354 c-269 -72 -435 -321 -391 -584 17 -98 77 -217 145 -285
64 -64 171 -119 270 -140 88 -18 132 -18 220 0 271 57 450 314 408 586 -47
299 -359 502 -652 423z m220 -44 c164 -31 303 -153 360 -316 17 -48 20 -77 17
-160 -3 -93 -6 -107 -40 -175 -46 -92 -82 -135 -150 -183 -194 -133 -456 -109
-622 58 -51 50 -100 146 -117 224 -67 322 225 614 552 552z"/>

<path fill="#629677" d="M4802 5869 c-43 -16 -48 -86 -9 -114 28 -20 50 -19 77 3 56 45 0 136
-68 111z"/>

<path fill="#629677" d="M5397 5859 c-33 -25 -35 -66 -7 -97 27 -29 55 -28 86 3 56 56 -17
144 -79 94z"/>

<path fill="#629677" d="M5196 5755 c-23 -29 -33 -35 -66 -35 -30 0 -43 6 -63 30 -30 35 -47
38 -47 9 0 -70 114 -118 178 -73 41 29 66 104 34 104 -6 0 -22 -16 -36 -35z"/>

<path fill="#629677" d="M3650 5294 c-182 -15 -283 -29 -405 -55 -371 -79 -736 -150 -814
-159 -47 -5 -129 -10 -181 -10 -52 0 -100 -4 -106 -8 -6 -4 -55 -82 -108 -173
-61 -105 -105 -170 -120 -177 -47 -21 -165 -129 -200 -181 l-35 -55 -49 3
c-64 3 -95 -23 -160 -132 -57 -97 -431 -703 -575 -932 -55 -88 -145 -227 -200
-310 -90 -135 -100 -155 -101 -197 -2 -79 55 -123 171 -134 62 -5 2525 14
2653 21 30 2 219 6 420 10 201 4 373 9 382 10 9 2 74 5 144 6 l128 2 19 -34
c29 -52 56 -78 122 -114 107 -60 259 -86 498 -86 359 0 589 80 632 219 4 15
12 21 23 18 17 -5 484 -20 947 -31 410 -9 1262 -17 2050 -18 752 -2 771 -2
809 18 54 27 81 67 81 118 0 34 -10 57 -51 117 -89 131 -353 552 -613 975
-139 226 -268 426 -287 445 -32 32 -39 35 -88 33 l-53 -2 -33 50 c-32 50 -114
125 -181 167 -26 16 -59 61 -127 174 -50 84 -97 161 -104 170 -10 14 -34 19
-113 23 -200 10 -270 21 -655 105 -502 109 -759 139 -1017 120 -395 -30 -692
-120 -943 -286 -88 -58 -199 -161 -241 -223 -19 -28 -36 -50 -39 -50 -3 0 -16
18 -30 40 -36 59 -178 191 -267 250 -212 138 -484 226 -803 259 -116 11 -319
19 -380 14z m336 -55 c130 -12 302 -43 399 -70 306 -87 569 -251 688 -429 l37
-55 0 -808 0 -809 -45 59 c-111 149 -268 290 -439 396 -126 79 -359 191 -489
236 -273 95 -431 122 -742 126 -354 5 -526 -14 -965 -110 -296 -65 -465 -99
-585 -119 -121 -20 -372 -46 -451 -46 l-63 0 29 48 c15 26 101 173 190 327 90
154 265 451 391 661 227 380 228 381 258 376 92 -13 368 28 786 118 238 51
440 88 545 99 123 12 330 13 456 0z m2745 0 c128 -13 448 -71 755 -138 214
-47 457 -81 571 -81 l48 0 267 -448 c449 -753 558 -940 558 -951 0 -15 -85
-14 -255 4 -215 22 -427 60 -830 150 -425 95 -614 116 -980 110 -232 -4 -371
-24 -600 -85 -231 -62 -564 -227 -765 -379 -99 -75 -255 -232 -307 -311 l-43
-63 -1 769 c0 423 -2 787 -4 810 -4 33 1 50 26 87 133 201 424 382 739 461
270 68 566 91 821 65z m-4959 -796 c-193 -320 -377 -637 -474 -818 -118 -218
-168 -293 -266 -396 -147 -154 -146 -152 49 176 270 456 600 1007 642 1072 41
61 155 179 165 168 2 -2 -50 -93 -116 -202z m6686 140 c37 -38 83 -95 102
-128 19 -33 123 -206 231 -385 208 -344 527 -879 549 -919 l12 -24 -28 21
c-44 31 -166 161 -203 216 -19 26 -68 114 -111 195 -66 125 -274 481 -563 964
-42 70 -72 127 -66 127 5 0 39 -30 77 -67z m-6808 -148 c0 -3 -9 -18 -19 -33
-20 -27 -42 -63 -379 -627 -286 -479 -428 -718 -441 -743 -11 -20 -10 -27 5
-43 17 -19 53 -19 1886 -19 1649 0 1872 -1 1897 -15 38 -19 44 -30 31 -55 -19
-36 5 -86 54 -115 54 -32 169 -61 271 -69 44 -4 108 -9 143 -12 83 -7 275 12
370 37 138 35 200 92 175 160 -11 28 -10 30 25 47 35 18 127 19 1906 20 2073
2 1917 -4 1884 65 -17 36 -345 585 -563 942 -219 359 -275 453 -275 459 0 3
13 6 29 6 41 0 59 -24 256 -347 168 -276 440 -712 633 -1016 65 -103 98 -164
95 -176 -9 -35 -51 -64 -105 -72 -50 -9 -674 -7 -2128 7 -355 3 -667 7 -695 9
-77 6 -672 20 -829 20 l-140 0 -8 -31 c-4 -18 -27 -48 -49 -69 -92 -83 -224
-115 -505 -122 -357 -10 -536 41 -622 176 l-34 54 -297 -8 c-163 -3 -321 -8
-351 -10 -238 -15 -3035 -42 -3119 -30 -64 9 -111 44 -111 84 0 16 16 51 38
82 78 109 321 498 666 1064 114 187 219 350 232 363 22 19 74 31 74 17z m2035
-614 c242 -36 456 -102 680 -211 225 -110 372 -209 519 -350 78 -75 216 -243
216 -262 0 -5 -11 -8 -24 -8 -16 0 -32 13 -52 41 -58 85 -304 274 -484 373
-157 87 -417 177 -550 191 -42 4 -23 -4 83 -34 348 -99 585 -231 879 -490 47
-42 87 -79 87 -82 1 -4 -20 -9 -45 -13 -25 -3 -86 -19 -135 -36 -50 -16 -95
-30 -101 -30 -6 0 -26 14 -45 30 -101 89 -383 191 -713 259 -439 89 -858 100
-1400 36 -63 -8 -248 -30 -410 -49 -162 -19 -371 -42 -465 -51 -93 -8 -192
-17 -220 -20 -107 -10 -545 -28 -550 -23 -4 3 18 28 47 56 60 57 35 52 328 72
274 20 742 82 726 97 -2 3 -91 -7 -198 -21 -106 -14 -254 -30 -328 -36 -74 -6
-144 -12 -155 -15 -11 -2 -80 -7 -154 -11 l-134 -7 44 55 44 55 145 7 c156 7
388 30 460 46 39 8 35 9 -30 5 -85 -5 -341 -23 -472 -34 l-87 -7 24 41 24 40
213 6 c213 6 339 19 603 63 195 33 143 31 -150 -5 -241 -29 -645 -51 -645 -35
0 4 12 27 26 52 20 34 32 44 52 44 72 0 329 22 427 36 117 17 405 74 750 148
193 41 434 81 545 89 25 2 146 4 270 5 177 2 253 -2 355 -17z m3531 9 c189
-15 305 -34 629 -105 476 -105 721 -144 1006 -161 l116 -7 22 -44 c11 -24 21
-47 21 -52 0 -10 -195 -5 -365 10 -197 17 -515 65 -941 144 -194 36 -422 63
-574 69 l-135 5 150 -14 c186 -17 320 -37 545 -80 635 -123 1016 -173 1229
-163 l109 5 21 -37 c11 -20 43 -65 71 -100 27 -34 50 -65 50 -68 0 -10 -322 8
-498 28 -159 18 -471 60 -562 76 -73 12 -20 -7 71 -25 272 -56 590 -95 864
-107 l160 -7 58 -48 58 -48 -33 -5 c-115 -18 -524 -26 -773 -15 -201 10 -392
26 -935 83 -184 19 -380 37 -435 40 -292 16 -355 17 -525 7 -220 -14 -327 -25
-475 -52 -226 -41 -469 -130 -574 -210 l-54 -41 -106 31 c-58 16 -123 33 -143
37 -21 3 -38 9 -38 13 0 11 151 144 240 213 246 188 447 286 745 365 110 29
121 33 69 28 -179 -17 -477 -129 -669 -252 -136 -88 -378 -294 -390 -334 -6
-18 -55 -29 -55 -12 0 11 107 148 166 213 161 174 453 360 755 480 156 63 416
124 599 143 79 8 406 6 526 -3z m-3556 -624 c180 -23 336 -52 490 -91 118 -29
330 -92 330 -98 0 -2 -3558 0 -3605 2 -19 1 -19 1 0 21 18 17 28 19 94 11 179
-19 755 26 1436 113 149 19 347 39 440 46 94 6 181 13 195 15 65 9 507 -5 620
-19z m3460 -46 c80 -6 280 -24 445 -41 165 -17 386 -39 490 -49 445 -45 1084
-50 1270 -10 34 8 43 6 62 -12 13 -12 23 -24 23 -27 0 -7 -3414 -11 -3515 -4
-67 5 -68 5 -39 18 63 26 275 75 414 95 266 38 575 49 850 30z m-1770 -255
c211 -60 185 -57 222 -21 33 31 33 31 36 8 8 -53 -67 -88 -263 -124 -86 -16
-348 -15 -430 1 -180 35 -255 68 -255 111 0 24 13 26 30 4 30 -35 48 -36 138
-8 185 57 221 64 327 60 66 -3 132 -14 195 -31z"/>

<path fill="#629677" d="M2200 3532 c0 -4 16 -6 35 -4 19 2 35 6 35 8 0 2 -16 4 -35 4 -19 0
-35 -4 -35 -8z"/>

<path fill="#629677" d="M3405 3429 c-3 -3 53 -9 123 -13 164 -9 377 -40 519 -76 245 -62 599
-228 801 -376 31 -23 28 0 -5 32 -46 44 -141 102 -283 173 -334 167 -594 241
-920 262 -162 10 -228 10 -235 -2z"/>

<path fill="#629677" d="M6675 3434 c-284 -13 -541 -72 -813 -185 -182 -76 -383 -192 -447
-259 -38 -40 -18 -38 36 3 193 147 579 311 873 372 126 25 395 55 505 55 35 0
62 3 59 6 -8 7 -127 12 -213 8z"/>

<path fill="#629677" d="M6908 3423 c7 -3 16 -2 19 1 4 3 -2 6 -13 5 -11 0 -14 -3 -6 -6z"/>
<path fill="#629677" d="M8485 3390 c40 -13 351 -49 488 -57 82 -5 108 -3 103 5 -4 7 -26 12
-49 12 -23 0 -121 9 -217 19 -228 25 -365 34 -325 21z"/>
</g>
</svg>
